<svg viewBox="0 0 192 74" xmlns="http://www.w3.org/2000/svg"><title>Anime UK News</title><g fill="none" fill-rule="evenodd"><path d="M14.05 20h9.3L18.72 9.17 14.06 20zm15.9 14l-3.02-7H11.96l-3.03 7H.05L15.85.16h7L38.7 34h-8.74zM62 .16h8.24V34h-6.52L48.26 14.66V34h-8.2V.16h6.42l15.5 19.34V.16zM75.04 34V.16h8.83V34h-8.83zM116.32.16h6.8V34h-7.67V16.24l-6.53 12.14h-5.66l-6.48-11.85L96.73 34h-7.68V.16H96l10.2 19.25L116.3.2zM127.05 34V.16h24.05v6.82h-15.46v6.43h14.5v6.8h-14.5v7h15.46V34h-24.05zm-37.57 5.16h3.7V73h-3.03l-20.4-27.22V73h-3.7V39.16h3.03l20.4 27.22V39.16zM96.05 73V39.16h21.4v3.26h-17.5v11.76h16.55v3.27H99.94v12.3h17.52V73h-21.4zm67.8-33.84h3.83L155.88 73h-3.36l-9.65-27.7-9.65 27.7h-3.3l-11.87-33.84h4l9.6 28.27 9.83-28.27 2.97.05 9.7 28.3 9.7-28.3zm3.2 30.34l1.54-3.03c1.6 1.4 3.3 2.42 5.1 3.03 1.7.6 3.7.9 6 .9 2.7 0 4.8-.52 6.3-1.58 1.4-1.05 2.2-2.54 2.2-4.46 0-1.12-.4-2.03-1.1-2.74-.7-.7-1.7-1.26-2.8-1.68-1.2-.4-2.7-.84-4.7-1.3-2.6-.6-4.8-1.24-6.5-1.9-1.7-.68-3.06-1.64-4.1-2.9-1.05-1.24-1.57-2.87-1.57-4.9 0-1.9.5-3.6 1.5-5.1 1.02-1.5 2.46-2.64 4.33-3.46 1.9-.8 4.05-1.22 6.5-1.22 2.35 0 4.53.37 6.56 1.1 2.04.74 3.76 1.8 5.16 3.17l-1.5 3.03c-1.6-1.38-3.24-2.38-4.9-3-1.63-.63-3.4-.94-5.34-.94-2.6 0-4.68.55-6.17 1.66-1.5 1.1-2.27 2.64-2.27 4.63 0 1.7.67 3 1.98 3.9 1.3.9 3.3 1.6 6 2.2 2.9.7 5.2 1.4 6.88 2 1.63.6 3 1.5 4.12 2.7 1.1 1.2 1.65 2.8 1.65 4.8 0 1.9-.5 3.6-1.5 5.1-1 1.4-2.45 2.53-4.34 3.3-1.9.8-4.1 1.18-6.67 1.18-5.3 0-9.5-1.4-12.7-4.25z" fill="#13345D"/><path fill="#F4382C" d="M62.15 72.84h-8.97l-14.7-15.6v15.6H31V39h7.5v14.88L52.7 39h8.83L45.78 55.18M3.72 69.6C1.24 67.15 0 63.58 0 58.87V39h7.34v20.2c0 2.7.62 4.74 1.85 6.15 1.2 1.4 3 2.1 5.3 2.1s4.1-.7 5.4-2.12c1.2-1.43 1.8-3.47 1.8-6.12V39H29v19.87c0 4.67-1.25 8.24-3.75 10.7-2.5 2.47-6.1 3.7-10.86 3.7-4.7 0-8.4-1.22-10.8-3.67z"/></g></svg>